<?xml version="1.0" standalone="no"?><!DOCTYPE svg PUBLIC "-//W3C//DTD SVG 1.1//EN" "http://www.w3.org/Graphics/SVG/1.1/DTD/svg11.dtd"><svg t="1762439345177" class="icon" viewBox="0 0 1024 1024" version="1.1" xmlns="http://www.w3.org/2000/svg" p-id="6028" xmlns:xlink="http://www.w3.org/1999/xlink" width="256" height="256"><path d="M144 96h672a64 64 0 0 1 64 64v496a64 64 0 0 1-64 64H144a64 64 0 0 1-64-64V160a64 64 0 0 1 64-64z m160 216v224a24 24 0 1 0 48 0v-224a24 24 0 1 0-48 0zM472 208A24 24 0 0 0 448 232v320a24 24 0 1 0 48 0v-320a24 24 0 0 0-24-24zM592 280v240a24 24 0 1 0 48 0v-240a24 24 0 1 0-48 0zM248 816a40 40 0 1 0 0 80h464a40 40 0 1 0 0-80h-464z" fill="#65A5F4" p-id="6029"></path><path d="M488.832 774.4a199.68 199.68 0 0 1 9.344-119.424c17.472-45.632 49.664-79.168 91.264-105.984 63.04-41.6 132.8-65.728 205.248-81.92 58.496-13.312 118.4-20.096 178.432-20.032 13.44 0 24.128 2.688 29.504 16.064 5.376 13.44 0 22.784-9.344 32.192-29.504 30.912-40.32 69.76-49.664 110.08-12.16 48.256-24.128 97.92-37.568 146.176-4.032 16.128-13.44 30.848-20.096 45.632-40.32 75.136-106.048 110.016-187.84 119.424-38.912 3.968-77.824 1.28-114.112-14.72a237.888 237.888 0 0 1-34.816-20.224c-21.184-17.664-21.184-17.664-40.256-41.6-12.928-40.064-12.928-40.064-20.096-65.664z" fill="#73CF47" p-id="6030"></path><path d="M816 632a24 24 0 0 1 0 48c-36.992 0-94.336 24.832-139.392 57.664-58.24 39.68-101.12 86.912-130.88 146.432-7.68 13.312-12.096 24.832-16 47.104a24 24 0 1 1-47.232-8.192c4.864-28.16 11.328-44.928 20.992-61.632 32.896-65.92 81.28-119.232 145.472-162.944 51.84-37.824 117.952-66.432 167.04-66.432z" fill="#4AB119" p-id="6031"></path></svg>